solid OpenSCAD_Model
  facet normal -0.951057 -0.309017 0
    outer loop
      vertex -13.8006 -5.80125 14
      vertex -13.7032 -6.10105 14
      vertex -13.8006 -5.80125 20
    endloop
  endfacet
  facet normal -0.951057 -0.309017 0
    outer loop
      vertex -13.8006 -5.80125 20
      vertex -13.7032 -6.10105 14
      vertex -13.7032 -6.10105 20
    endloop
  endfacet
  facet normal -0.847949 -0.275515 -0.452851
    outer loop
      vertex -13.8006 -5.80125 14
      vertex -12.5898 -5.49464 11.5463
      vertex -13.7032 -6.10105 14
    endloop
  endfacet
  facet normal -0.847949 -0.275515 -0.452851
    outer loop
      vertex -7.17133 -3.19288 0
      vertex -12.5898 -5.49464 11.5463
      vertex -10.9363 -4.41434 7.79293
    endloop
  endfacet
  facet normal -0.847949 -0.275515 -0.452851
    outer loop
      vertex -7.17133 -3.19288 0
      vertex -10.9363 -4.41434 7.79293
      vertex -9.9641 -3.16525 5.21256
    endloop
  endfacet
  facet normal -0.847949 -0.275515 -0.452851
    outer loop
      vertex -13.7032 -6.10105 14
      vertex -12.5898 -5.49464 11.5463
      vertex -7.17133 -3.19288 0
    endloop
  endfacet
  facet normal -0.245485 0.9694 0
    outer loop
      vertex -12.5898 -5.49464 20
      vertex -12.5898 -5.49464 11.5463
      vertex -13.8006 -5.80125 20
    endloop
  endfacet
  facet normal -0.245485 0.9694 0
    outer loop
      vertex -13.8006 -5.80125 20
      vertex -12.5898 -5.49464 11.5463
      vertex -13.8006 -5.80125 14
    endloop
  endfacet
  facet normal 0 0 1
    outer loop
      vertex -12.5898 -5.49464 20
      vertex -13.8006 -5.80125 20
      vertex -13.7032 -6.10105 20
    endloop
  endfacet
  facet normal 0 0 1
    outer loop
      vertex -10.037 -11.1472 20
      vertex -12.5898 -5.49464 20
      vertex -12.1353 -8.81678 20
    endloop
  endfacet
  facet normal 0 0 1
    outer loop
      vertex -12.1353 -8.81678 20
      vertex -12.5898 -5.49464 20
      vertex -13.7032 -6.10105 20
    endloop
  endfacet
  facet normal 0 0 1
    outer loop
      vertex -7.5 -12.9904 20
      vertex -12.5898 -5.49464 20
      vertex -10.037 -11.1472 20
    endloop
  endfacet
  facet normal 0 0 1
    outer loop
      vertex -5.78899 -13.7522 20
      vertex -12.5898 -5.49464 20
      vertex -7.5 -12.9904 20
    endloop
  endfacet
  facet normal 0 0 1
    outer loop
      vertex -5.49464 -12.5898 20
      vertex -12.5898 -5.49464 20
      vertex -5.78899 -13.7522 20
    endloop
  endfacet
  facet normal 0 0 1
    outer loop
      vertex -4.41434 -10.9363 20
      vertex -12.5898 -5.49464 20
      vertex -5.49464 -12.5898 20
    endloop
  endfacet
  facet normal 0 0 1
    outer loop
      vertex -2.85568 -9.72316 20
      vertex -12.5898 -5.49464 20
      vertex -4.41434 -10.9363 20
    endloop
  endfacet
  facet normal 0 0 1
    outer loop
      vertex -0.987568 -9.08183 20
      vertex -12.5898 -5.49464 20
      vertex -2.85568 -9.72316 20
    endloop
  endfacet
  facet normal 0 0 1
    outer loop
      vertex 0.987568 -9.08183 20
      vertex -12.5898 -5.49464 20
      vertex -0.987568 -9.08183 20
    endloop
  endfacet
  facet normal 0 0 1
    outer loop
      vertex 10.037 -11.1472 20
      vertex -12.5898 -5.49464 20
      vertex 0.987568 -9.08183 20
    endloop
  endfacet
  facet normal 0 0 1
    outer loop
      vertex 10.037 -11.1472 20
      vertex 0.987568 -9.08183 20
      vertex 2.85568 -9.72316 20
    endloop
  endfacet
  facet normal 0 0 1
    outer loop
      vertex 7.5 -12.9904 20
      vertex 2.85568 -9.72316 20
      vertex 4.41434 -10.9363 20
    endloop
  endfacet
  facet normal 0 0 1
    outer loop
      vertex 7.5 -12.9904 20
      vertex 4.41434 -10.9363 20
      vertex 5.49464 -12.5898 20
    endloop
  endfacet
  facet normal 0 0 1
    outer loop
      vertex 7.5 -12.9904 20
      vertex 5.49464 -12.5898 20
      vertex 5.78899 -13.7522 20
    endloop
  endfacet
  facet normal 0 0 1
    outer loop
      vertex 10.037 -11.1472 20
      vertex 2.85568 -9.72316 20
      vertex 7.5 -12.9904 20
    endloop
  endfacet
  facet normal 0 0 1
    outer loop
      vertex 12.1353 -8.81678 20
      vertex -12.5898 -5.49464 20
      vertex 10.037 -11.1472 20
    endloop
  endfacet
  facet normal 0 0 1
    outer loop
      vertex 13.7032 -6.10105 20
      vertex -12.5898 -5.49464 20
      vertex 12.1353 -8.81678 20
    endloop
  endfacet
  facet normal 0 0 1
    outer loop
      vertex 13.8006 -5.80125 20
      vertex -12.5898 -5.49464 20
      vertex 13.7032 -6.10105 20
    endloop
  endfacet
  facet normal 0 0 1
    outer loop
      vertex 12.5898 -5.49464 20
      vertex -12.5898 -5.49464 20
      vertex 13.8006 -5.80125 20
    endloop
  endfacet
  facet normal 0 0 1
    outer loop
      vertex -2.9613 -5.12912 20
      vertex -12.5898 -5.49464 20
      vertex 12.5898 -5.49464 20
    endloop
  endfacet
  facet normal 0 0 1
    outer loop
      vertex -10.9363 4.41434 20
      vertex -9.72316 2.85568 20
      vertex -5.49464 12.5898 20
    endloop
  endfacet
  facet normal 0 0 1
    outer loop
      vertex -2.9613 5.12912 20
      vertex 2.9613 5.12912 20
      vertex 10.037 11.1472 20
    endloop
  endfacet
  facet normal 0 0 1
    outer loop
      vertex 2.9613 5.12912 20
      vertex 10.9363 4.41434 20
      vertex 12.5898 5.49464 20
    endloop
  endfacet
  facet normal 0 0 1
    outer loop
      vertex 13.7032 6.10105 20
      vertex 12.5898 5.49464 20
      vertex 13.8006 5.80125 20
    endloop
  endfacet
  facet normal 0 0 1
    outer loop
      vertex 5.9226 0 20
      vertex 10.9363 -4.41434 20
      vertex 9.72316 -2.85568 20
    endloop
  endfacet
  facet normal 0 0 1
    outer loop
      vertex -2.9613 5.12912 20
      vertex 7.5 12.9904 20
      vertex 4.41434 10.9363 20
    endloop
  endfacet
  facet normal 0 0 1
    outer loop
      vertex 5.78899 13.7522 20
      vertex 5.49464 12.5898 20
      vertex 7.5 12.9904 20
    endloop
  endfacet
  facet normal 0 0 1
    outer loop
      vertex -13.8006 5.80125 20
      vertex -12.5898 5.49464 20
      vertex -13.7032 6.10105 20
    endloop
  endfacet
  facet normal 0 0 1
    outer loop
      vertex 5.49464 12.5898 20
      vertex 4.41434 10.9363 20
      vertex 7.5 12.9904 20
    endloop
  endfacet
  facet normal 0 0 1
    outer loop
      vertex 2.9613 5.12912 20
      vertex 12.5898 5.49464 20
      vertex 13.7032 6.10105 20
    endloop
  endfacet
  facet normal 0 0 1
    outer loop
      vertex -12.5898 5.49464 20
      vertex -10.9363 4.41434 20
      vertex -10.037 11.1472 20
    endloop
  endfacet
  facet normal 0 0 1
    outer loop
      vertex 5.9226 0 20
      vertex 9.72316 -2.85568 20
      vertex 9.08183 -0.987568 20
    endloop
  endfacet
  facet normal 0 0 1
    outer loop
      vertex -2.9613 5.12912 20
      vertex 2.85568 9.72316 20
      vertex 0.987568 9.08183 20
    endloop
  endfacet
  facet normal 0 0 1
    outer loop
      vertex -9.08183 0.987568 20
      vertex -0.987568 9.08183 20
      vertex -2.85568 9.72316 20
    endloop
  endfacet
  facet normal 0 0 1
    outer loop
      vertex -9.72316 2.85568 20
      vertex -9.08183 0.987568 20
      vertex -4.41434 10.9363 20
    endloop
  endfacet
  facet normal 0 0 1
    outer loop
      vertex -9.08183 0.987568 20
      vertex -9.08183 -0.987568 20
      vertex -0.987568 9.08183 20
    endloop
  endfacet
  facet normal 0 0 1
    outer loop
      vertex -2.9613 5.12912 20
      vertex 10.037 11.1472 20
      vertex 7.5 12.9904 20
    endloop
  endfacet
  facet normal 0 0 1
    outer loop
      vertex -10.9363 4.41434 20
      vertex -5.78899 13.7522 20
      vertex -7.5 12.9904 20
    endloop
  endfacet
  facet normal 0 0 1
    outer loop
      vertex -10.9363 4.41434 20
      vertex -5.49464 12.5898 20
      vertex -5.78899 13.7522 20
    endloop
  endfacet
  facet normal 0 0 1
    outer loop
      vertex -12.5898 5.49464 20
      vertex -10.037 11.1472 20
      vertex -12.1353 8.81678 20
    endloop
  endfacet
  facet normal 0 0 1
    outer loop
      vertex -13.7032 6.10105 20
      vertex -12.5898 5.49464 20
      vertex -12.1353 8.81678 20
    endloop
  endfacet
  facet normal 0 0 1
    outer loop
      vertex -10.037 11.1472 20
      vertex -10.9363 4.41434 20
      vertex -7.5 12.9904 20
    endloop
  endfacet
  facet normal 0 0 1
    outer loop
      vertex -5.49464 12.5898 20
      vertex -9.72316 2.85568 20
      vertex -4.41434 10.9363 20
    endloop
  endfacet
  facet normal 0 0 1
    outer loop
      vertex -4.41434 10.9363 20
      vertex -9.08183 0.987568 20
      vertex -2.85568 9.72316 20
    endloop
  endfacet
  facet normal 0 0 1
    outer loop
      vertex -0.987568 9.08183 20
      vertex -9.08183 -0.987568 20
      vertex 0.987568 9.08183 20
    endloop
  endfacet
  facet normal 0 0 1
    outer loop
      vertex -2.9613 5.12912 20
      vertex 4.41434 10.9363 20
      vertex 2.85568 9.72316 20
    endloop
  endfacet
  facet normal 0 0 1
    outer loop
      vertex -5.9226 0 20
      vertex -2.9613 5.12912 20
      vertex -9.08183 -0.987568 20
    endloop
  endfacet
  facet normal 0 0 1
    outer loop
      vertex 2.9613 -5.12912 20
      vertex -2.9613 -5.12912 20
      vertex 12.5898 -5.49464 20
    endloop
  endfacet
  facet normal 0 0 1
    outer loop
      vertex 2.9613 5.12912 20
      vertex 13.7032 6.10105 20
      vertex 12.1353 8.81678 20
    endloop
  endfacet
  facet normal 0 0 1
    outer loop
      vertex 2.9613 5.12912 20
      vertex 9.72316 2.85568 20
      vertex 10.9363 4.41434 20
    endloop
  endfacet
  facet normal 0 0 1
    outer loop
      vertex -9.08183 -0.987568 20
      vertex -2.9613 5.12912 20
      vertex 0.987568 9.08183 20
    endloop
  endfacet
  facet normal 0 0 1
    outer loop
      vertex 5.9226 0 20
      vertex 9.08183 -0.987568 20
      vertex 9.08183 -2.22433e-015 20
    endloop
  endfacet
  facet normal 0 0 1
    outer loop
      vertex 10.037 11.1472 20
      vertex 2.9613 5.12912 20
      vertex 12.1353 8.81678 20
    endloop
  endfacet
  facet normal 0 0 1
    outer loop
      vertex 5.9226 0 20
      vertex 2.9613 -5.12912 20
      vertex 10.9363 -4.41434 20
    endloop
  endfacet
  facet normal 0 0 1
    outer loop
      vertex 9.08183 0.987568 20
      vertex 5.9226 0 20
      vertex 9.08183 -2.22433e-015 20
    endloop
  endfacet
  facet normal 0 0 1
    outer loop
      vertex -5.9226 0 20
      vertex -9.08183 -0.987568 20
      vertex -9.72316 -2.85568 20
    endloop
  endfacet
  facet normal 0 0 1
    outer loop
      vertex 10.9363 -4.41434 20
      vertex 2.9613 -5.12912 20
      vertex 12.5898 -5.49464 20
    endloop
  endfacet
  facet normal 0 0 1
    outer loop
      vertex 2.9613 5.12912 20
      vertex 9.08183 0.987568 20
      vertex 9.72316 2.85568 20
    endloop
  endfacet
  facet normal 0 0 1
    outer loop
      vertex 2.9613 5.12912 20
      vertex 5.9226 0 20
      vertex 9.08183 0.987568 20
    endloop
  endfacet
  facet normal 0 0 1
    outer loop
      vertex -2.9613 -5.12912 20
      vertex -10.9363 -4.41434 20
      vertex -12.5898 -5.49464 20
    endloop
  endfacet
  facet normal 0 0 1
    outer loop
      vertex -2.9613 -5.12912 20
      vertex -9.72316 -2.85568 20
      vertex -10.9363 -4.41434 20
    endloop
  endfacet
  facet normal 0 0 1
    outer loop
      vertex -2.9613 -5.12912 20
      vertex -5.9226 0 20
      vertex -9.72316 -2.85568 20
    endloop
  endfacet
  facet normal -0.866025 -0.5 0
    outer loop
      vertex -13.7032 -6.10105 14
      vertex -12.1353 -8.81678 14
      vertex -13.7032 -6.10105 20
    endloop
  endfacet
  facet normal -0.866025 -0.5 0
    outer loop
      vertex -13.7032 -6.10105 20
      vertex -12.1353 -8.81678 14
      vertex -12.1353 -8.81678 20
    endloop
  endfacet
  facet normal -0.772136 -0.445793 -0.452851
    outer loop
      vertex -12.1353 -8.81678 14
      vertex -13.7032 -6.10105 14
      vertex -6.35078 -4.61411 0
    endloop
  endfacet
  facet normal -0.772136 -0.445793 -0.452851
    outer loop
      vertex -6.35078 -4.61411 0
      vertex -13.7032 -6.10105 14
      vertex -7.17133 -3.19288 0
    endloop
  endfacet
  facet normal 0 0 -1
    outer loop
      vertex -7.85 0 0
      vertex -7.67846 1.63211 0
      vertex -7.67846 -1.63211 0
    endloop
  endfacet
  facet normal 0 0 -1
    outer loop
      vertex -7.67846 -1.63211 0
      vertex -7.67846 1.63211 0
      vertex -7.17133 3.19288 0
    endloop
  endfacet
  facet normal 0 0 -1
    outer loop
      vertex -7.67846 -1.63211 0
      vertex -7.17133 3.19288 0
      vertex -6.35078 4.61411 0
    endloop
  endfacet
  facet normal 0 0 -1
    outer loop
      vertex -7.67846 -1.63211 0
      vertex -6.35078 4.61411 0
      vertex -5.25267 5.83369 0
    endloop
  endfacet
  facet normal 0 0 -1
    outer loop
      vertex -7.67846 -1.63211 0
      vertex -5.25267 5.83369 0
      vertex -3.925 6.7983 0
    endloop
  endfacet
  facet normal 0 0 -1
    outer loop
      vertex -7.67846 -1.63211 0
      vertex -3.925 6.7983 0
      vertex -2.42578 7.46579 0
    endloop
  endfacet
  facet normal 0 0 -1
    outer loop
      vertex -7.67846 -1.63211 0
      vertex -2.42578 7.46579 0
      vertex -0.820548 7.807 0
    endloop
  endfacet
  facet normal 0 0 -1
    outer loop
      vertex -7.67846 -1.63211 0
      vertex -0.820548 7.807 0
      vertex 0.820548 7.807 0
    endloop
  endfacet
  facet normal 0 0 -1
    outer loop
      vertex -7.67846 -1.63211 0
      vertex 0.820548 7.807 0
      vertex 2.42578 7.46579 0
    endloop
  endfacet
  facet normal 0 0 -1
    outer loop
      vertex -7.67846 -1.63211 0
      vertex 2.42578 7.46579 0
      vertex 3.925 6.7983 0
    endloop
  endfacet
  facet normal 0 0 -1
    outer loop
      vertex 0 3.13645 0
      vertex 3.925 6.7983 0
      vertex 5.25267 5.83369 0
    endloop
  endfacet
  facet normal 0 0 -1
    outer loop
      vertex 0.969218 2.98295 0
      vertex 5.25267 5.83369 0
      vertex 6.35078 4.61411 0
    endloop
  endfacet
  facet normal 0 0 -1
    outer loop
      vertex 2.53745 1.84356 0
      vertex 6.35078 4.61411 0
      vertex 7.17133 3.19288 0
    endloop
  endfacet
  facet normal 0 0 -1
    outer loop
      vertex 2.98295 0.969218 0
      vertex 7.17133 3.19288 0
      vertex 7.67846 1.63211 0
    endloop
  endfacet
  facet normal 0 0 -1
    outer loop
      vertex 3.13645 0 0
      vertex 7.67846 1.63211 0
      vertex 7.85 0 0
    endloop
  endfacet
  facet normal 0 0 -1
    outer loop
      vertex 2.98295 -0.969218 0
      vertex 7.85 0 0
      vertex 7.67846 -1.63211 0
    endloop
  endfacet
  facet normal 0 0 -1
    outer loop
      vertex 2.53745 -1.84356 0
      vertex 7.67846 -1.63211 0
      vertex 7.17133 -3.19288 0
    endloop
  endfacet
  facet normal 0 0 -1
    outer loop
      vertex 0.969218 -2.98295 0
      vertex 7.17133 -3.19288 0
      vertex 6.35078 -4.61411 0
    endloop
  endfacet
  facet normal 0 0 -1
    outer loop
      vertex -7.67846 -1.63211 0
      vertex 6.35078 -4.61411 0
      vertex 5.25267 -5.83369 0
    endloop
  endfacet
  facet normal 0 0 -1
    outer loop
      vertex -7.67846 -1.63211 0
      vertex 5.25267 -5.83369 0
      vertex 3.925 -6.7983 0
    endloop
  endfacet
  facet normal 0 0 -1
    outer loop
      vertex -7.67846 -1.63211 0
      vertex 3.925 -6.7983 0
      vertex 2.42578 -7.46579 0
    endloop
  endfacet
  facet normal 0 0 -1
    outer loop
      vertex -7.67846 -1.63211 0
      vertex 2.42578 -7.46579 0
      vertex 0.820548 -7.807 0
    endloop
  endfacet
  facet normal 0 0 -1
    outer loop
      vertex -7.67846 -1.63211 0
      vertex 0.820548 -7.807 0
      vertex -0.820548 -7.807 0
    endloop
  endfacet
  facet normal 0 0 -1
    outer loop
      vertex -7.67846 -1.63211 0
      vertex -0.820548 -7.807 0
      vertex -2.42578 -7.46579 0
    endloop
  endfacet
  facet normal 0 0 -1
    outer loop
      vertex -7.67846 -1.63211 0
      vertex -2.42578 -7.46579 0
      vertex -3.925 -6.7983 0
    endloop
  endfacet
  facet normal 0 0 -1
    outer loop
      vertex -7.67846 -1.63211 0
      vertex -3.925 -6.7983 0
      vertex -5.25267 -5.83369 0
    endloop
  endfacet
  facet normal 0 0 -1
    outer loop
      vertex -7.67846 -1.63211 0
      vertex -5.25267 -5.83369 0
      vertex -6.35078 -4.61411 0
    endloop
  endfacet
  facet normal 0 0 -1
    outer loop
      vertex -7.67846 -1.63211 0
      vertex -6.35078 -4.61411 0
      vertex -7.17133 -3.19288 0
    endloop
  endfacet
  facet normal 0 0 -1
    outer loop
      vertex 0.969218 2.98295 0
      vertex 6.35078 4.61411 0
      vertex 1.84356 2.53745 0
    endloop
  endfacet
  facet normal 0 0 -1
    outer loop
      vertex -2.53745 -1.84356 0
      vertex -7.67846 -1.63211 0
      vertex -2.98295 -0.969218 0
    endloop
  endfacet
  facet normal 0 0 -1
    outer loop
      vertex -1.84356 -2.53745 0
      vertex -7.67846 -1.63211 0
      vertex -2.53745 -1.84356 0
    endloop
  endfacet
  facet normal 0 0 -1
    outer loop
      vertex 0.969218 -2.98295 0
      vertex 6.35078 -4.61411 0
      vertex 0 -3.13645 0
    endloop
  endfacet
  facet normal 0 0 -1
    outer loop
      vertex -7.67846 -1.63211 0
      vertex -1.84356 -2.53745 0
      vertex -0.969218 -2.98295 0
    endloop
  endfacet
  facet normal 0 0 -1
    outer loop
      vertex -7.67846 -1.63211 0
      vertex -0.969218 -2.98295 0
      vertex 6.35078 -4.61411 0
    endloop
  endfacet
  facet normal 0 0 -1
    outer loop
      vertex -0.969218 -2.98295 0
      vertex 0 -3.13645 0
      vertex 6.35078 -4.61411 0
    endloop
  endfacet
  facet normal 0 0 -1
    outer loop
      vertex 1.84356 -2.53745 0
      vertex 7.17133 -3.19288 0
      vertex 0.969218 -2.98295 0
    endloop
  endfacet
  facet normal 0 0 -1
    outer loop
      vertex 2.98295 -0.969218 0
      vertex 7.67846 -1.63211 0
      vertex 2.53745 -1.84356 0
    endloop
  endfacet
  facet normal 0 0 -1
    outer loop
      vertex 2.53745 -1.84356 0
      vertex 7.17133 -3.19288 0
      vertex 1.84356 -2.53745 0
    endloop
  endfacet
  facet normal 0 0 -1
    outer loop
      vertex 2.98295 0.969218 0
      vertex 7.67846 1.63211 0
      vertex 3.13645 0 0
    endloop
  endfacet
  facet normal 0 0 -1
    outer loop
      vertex 3.13645 0 0
      vertex 7.85 0 0
      vertex 2.98295 -0.969218 0
    endloop
  endfacet
  facet normal 0 0 -1
    outer loop
      vertex 1.84356 2.53745 0
      vertex 6.35078 4.61411 0
      vertex 2.53745 1.84356 0
    endloop
  endfacet
  facet normal 0 0 -1
    outer loop
      vertex -2.98295 -0.969218 0
      vertex -7.67846 -1.63211 0
      vertex -3.13645 0 0
    endloop
  endfacet
  facet normal 0 0 -1
    outer loop
      vertex 2.53745 1.84356 0
      vertex 7.17133 3.19288 0
      vertex 2.98295 0.969218 0
    endloop
  endfacet
  facet normal 0 0 -1
    outer loop
      vertex -0.969218 2.98295 0
      vertex 3.925 6.7983 0
      vertex 0 3.13645 0
    endloop
  endfacet
  facet normal 0 0 -1
    outer loop
      vertex -2.53745 1.84356 0
      vertex -7.67846 -1.63211 0
      vertex -1.84356 2.53745 0
    endloop
  endfacet
  facet normal 0 0 -1
    outer loop
      vertex -1.84356 2.53745 0
      vertex 3.925 6.7983 0
      vertex -0.969218 2.98295 0
    endloop
  endfacet
  facet normal 0 0 -1
    outer loop
      vertex -7.67846 -1.63211 0
      vertex 3.925 6.7983 0
      vertex -1.84356 2.53745 0
    endloop
  endfacet
  facet normal 0 0 -1
    outer loop
      vertex -2.98295 0.969218 0
      vertex -7.67846 -1.63211 0
      vertex -2.53745 1.84356 0
    endloop
  endfacet
  facet normal 0 0 -1
    outer loop
      vertex -3.13645 0 0
      vertex -7.67846 -1.63211 0
      vertex -2.98295 0.969218 0
    endloop
  endfacet
  facet normal 0 0 -1
    outer loop
      vertex 0 3.13645 0
      vertex 5.25267 5.83369 0
      vertex 0.969218 2.98295 0
    endloop
  endfacet
  facet normal -0.847949 -0.275515 -0.452851
    outer loop
      vertex -9.9641 -3.16525 5.21256
      vertex -9.72316 -2.85568 4.57305
      vertex -7.17133 -3.19288 0
    endloop
  endfacet
  facet normal -0.847949 -0.275515 -0.452851
    outer loop
      vertex -7.17133 -3.19288 0
      vertex -9.72316 -2.85568 4.57305
      vertex -9.43099 -2.00462 3.50818
    endloop
  endfacet
  facet normal -0.847949 -0.275515 -0.452851
    outer loop
      vertex -7.17133 -3.19288 0
      vertex -9.43099 -2.00462 3.50818
      vertex -7.67846 -1.63211 0
    endloop
  endfacet
  facet normal -0.78914 0.614213 0
    outer loop
      vertex -9.72316 -2.85568 20
      vertex -9.72316 -2.85568 4.57305
      vertex -10.9363 -4.41434 20
    endloop
  endfacet
  facet normal -0.78914 0.614213 0
    outer loop
      vertex -10.9363 -4.41434 20
      vertex -9.72316 -2.85568 4.57305
      vertex -9.9641 -3.16525 5.21256
    endloop
  endfacet
  facet normal -0.78914 0.614213 0
    outer loop
      vertex -10.9363 -4.41434 20
      vertex -9.9641 -3.16525 5.21256
      vertex -10.9363 -4.41434 7.79293
    endloop
  endfacet
  facet normal -0.546949 0.837166 0
    outer loop
      vertex -10.9363 -4.41434 20
      vertex -10.9363 -4.41434 7.79293
      vertex -12.5898 -5.49464 20
    endloop
  endfacet
  facet normal -0.546949 0.837166 0
    outer loop
      vertex -12.5898 -5.49464 20
      vertex -10.9363 -4.41434 7.79293
      vertex -12.5898 -5.49464 11.5463
    endloop
  endfacet
  facet normal -0.945817 0.324699 0
    outer loop
      vertex -9.08183 -0.987568 20
      vertex -9.08183 -0.987568 2.61522
      vertex -9.72316 -2.85568 20
    endloop
  endfacet
  facet normal -0.945817 0.324699 0
    outer loop
      vertex -9.72316 -2.85568 20
      vertex -9.08183 -0.987568 2.61522
      vertex -9.18761 -1.29569 2.88575
    endloop
  endfacet
  facet normal -0.945817 0.324699 0
    outer loop
      vertex -9.72316 -2.85568 20
      vertex -9.18761 -1.29569 2.88575
      vertex -9.43099 -2.00462 3.50818
    endloop
  endfacet
  facet normal -0.945817 0.324699 0
    outer loop
      vertex -9.72316 -2.85568 20
      vertex -9.43099 -2.00462 3.50818
      vertex -9.72316 -2.85568 4.57305
    endloop
  endfacet
  facet normal -1 1.22461e-016 0
    outer loop
      vertex -9.08183 0.987568 20
      vertex -9.08183 0.987568 2.61522
      vertex -9.08183 -0.987568 20
    endloop
  endfacet
  facet normal -1 1.22461e-016 0
    outer loop
      vertex -9.08183 -0.987568 20
      vertex -9.08183 0.987568 2.61522
      vertex -9.08183 0.563114 2.52787
    endloop
  endfacet
  facet normal -1 1.22461e-016 0
    outer loop
      vertex -9.08183 -0.987568 20
      vertex -9.08183 0.563114 2.52787
      vertex -9.08183 0 2.41198
    endloop
  endfacet
  facet normal -1 1.22461e-016 0
    outer loop
      vertex -9.08183 -0.987568 20
      vertex -9.08183 0 2.41198
      vertex -9.08183 -0.987568 2.61522
    endloop
  endfacet
  facet normal -0.945817 -0.324699 0
    outer loop
      vertex -9.08183 0.987568 2.61522
      vertex -9.08183 0.987568 20
      vertex -9.43099 2.00462 3.50818
    endloop
  endfacet
  facet normal -0.945817 -0.324699 0
    outer loop
      vertex -9.43099 2.00462 3.50818
      vertex -9.08183 0.987568 20
      vertex -9.72316 2.85568 20
    endloop
  endfacet
  facet normal -0.945817 -0.324699 0
    outer loop
      vertex -9.43099 2.00462 3.50818
      vertex -9.72316 2.85568 20
      vertex -9.72316 2.85568 4.57305
    endloop
  endfacet
  facet normal -0.78914 -0.614213 0
    outer loop
      vertex -9.72316 2.85568 4.57305
      vertex -9.72316 2.85568 20
      vertex -10.2629 3.54918 6.00568
    endloop
  endfacet
  facet normal -0.78914 -0.614213 0
    outer loop
      vertex -10.2629 3.54918 6.00568
      vertex -9.72316 2.85568 20
      vertex -10.9363 4.41434 20
    endloop
  endfacet
  facet normal -0.78914 -0.614213 0
    outer loop
      vertex -10.2629 3.54918 6.00568
      vertex -10.9363 4.41434 20
      vertex -10.9363 4.41434 7.79293
    endloop
  endfacet
  facet normal -0.546949 -0.837166 0
    outer loop
      vertex -10.9363 4.41434 7.79293
      vertex -10.9363 4.41434 20
      vertex -12.5898 5.49464 20
    endloop
  endfacet
  facet normal -0.546949 -0.837166 0
    outer loop
      vertex -12.5898 5.49464 11.5463
      vertex -10.9363 4.41434 7.79293
      vertex -12.5898 5.49464 20
    endloop
  endfacet
  facet normal -0.245485 -0.9694 0
    outer loop
      vertex -13.039 5.60839 12.4566
      vertex -12.5898 5.49464 11.5463
      vertex -12.5898 5.49464 20
    endloop
  endfacet
  facet normal -0.245485 -0.9694 0
    outer loop
      vertex -13.8006 5.80125 14
      vertex -13.039 5.60839 12.4566
      vertex -13.8006 5.80125 20
    endloop
  endfacet
  facet normal -0.245485 -0.9694 0
    outer loop
      vertex -13.8006 5.80125 20
      vertex -13.039 5.60839 12.4566
      vertex -12.5898 5.49464 20
    endloop
  endfacet
  facet normal -0.951057 0.309017 0
    outer loop
      vertex -13.8006 5.80125 14
      vertex -13.8006 5.80125 20
      vertex -13.7032 6.10105 14
    endloop
  endfacet
  facet normal -0.951057 0.309017 0
    outer loop
      vertex -13.7032 6.10105 14
      vertex -13.8006 5.80125 20
      vertex -13.7032 6.10105 20
    endloop
  endfacet
  facet normal -0.866025 0.5 0
    outer loop
      vertex -13.7032 6.10105 14
      vertex -13.7032 6.10105 20
      vertex -12.1353 8.81678 14
    endloop
  endfacet
  facet normal -0.866025 0.5 0
    outer loop
      vertex -12.1353 8.81678 14
      vertex -13.7032 6.10105 20
      vertex -12.1353 8.81678 20
    endloop
  endfacet
  facet normal -0.743145 0.669131 0
    outer loop
      vertex -12.1353 8.81678 14
      vertex -12.1353 8.81678 20
      vertex -10.037 11.1472 14
    endloop
  endfacet
  facet normal -0.743145 0.669131 0
    outer loop
      vertex -10.037 11.1472 14
      vertex -12.1353 8.81678 20
      vertex -10.037 11.1472 20
    endloop
  endfacet
  facet normal -0.587785 0.809017 0
    outer loop
      vertex -10.037 11.1472 14
      vertex -10.037 11.1472 20
      vertex -7.5 12.9904 14
    endloop
  endfacet
  facet normal -0.587785 0.809017 0
    outer loop
      vertex -7.5 12.9904 14
      vertex -10.037 11.1472 20
      vertex -7.5 12.9904 20
    endloop
  endfacet
  facet normal -0.406737 0.913545 0
    outer loop
      vertex -7.5 12.9904 14
      vertex -7.5 12.9904 20
      vertex -5.78899 13.7522 14
    endloop
  endfacet
  facet normal -0.406737 0.913545 0
    outer loop
      vertex -5.78899 13.7522 14
      vertex -7.5 12.9904 20
      vertex -5.78899 13.7522 20
    endloop
  endfacet
  facet normal 0.9694 0.245485 0
    outer loop
      vertex -5.78899 13.7522 20
      vertex -5.49464 12.5898 20
      vertex -5.49464 12.5898 11.6737
    endloop
  endfacet
  facet normal 0.9694 0.245485 0
    outer loop
      vertex -5.78899 13.7522 14
      vertex -5.78899 13.7522 20
      vertex -5.49464 12.5898 11.6737
    endloop
  endfacet
  facet normal 0.837166 0.546949 0
    outer loop
      vertex -5.49464 12.5898 20
      vertex -4.41434 10.9363 20
      vertex -4.41434 10.9363 7.83455
    endloop
  endfacet
  facet normal 0.837166 0.546949 0
    outer loop
      vertex -5.49464 12.5898 11.6737
      vertex -5.49464 12.5898 20
      vertex -4.41434 10.9363 7.83455
    endloop
  endfacet
  facet normal 0.614213 0.78914 0
    outer loop
      vertex -2.85568 9.72316 20
      vertex -2.85568 9.72316 4.52321
      vertex -4.41434 10.9363 20
    endloop
  endfacet
  facet normal 0.614213 0.78914 0
    outer loop
      vertex -4.41434 10.9363 20
      vertex -2.85568 9.72316 4.52321
      vertex -3.262 10.0394 5.29857
    endloop
  endfacet
  facet normal 0.614213 0.78914 0
    outer loop
      vertex -4.41434 10.9363 20
      vertex -3.262 10.0394 5.29857
      vertex -4.31092 10.8558 7.60694
    endloop
  endfacet
  facet normal 0.614213 0.78914 0
    outer loop
      vertex -4.41434 10.9363 20
      vertex -4.31092 10.8558 7.60694
      vertex -4.41434 10.9363 7.83455
    endloop
  endfacet
  facet normal 0.324699 0.945817 0
    outer loop
      vertex -0.987568 9.08183 20
      vertex -0.987568 9.08183 2.52345
      vertex -2.85568 9.72316 20
    endloop
  endfacet
  facet normal 0.324699 0.945817 0
    outer loop
      vertex -2.85568 9.72316 20
      vertex -0.987568 9.08183 2.52345
      vertex -2.19214 9.49536 3.81292
    endloop
  endfacet
  facet normal 0.324699 0.945817 0
    outer loop
      vertex -2.85568 9.72316 20
      vertex -2.19214 9.49536 3.81292
      vertex -2.85568 9.72316 4.52321
    endloop
  endfacet
  facet normal 6.12303e-017 1 0
    outer loop
      vertex 0.987568 9.08183 20
      vertex 0.987568 9.08183 2.52345
      vertex -0.987568 9.08183 20
    endloop
  endfacet
  facet normal 6.12303e-017 1 0
    outer loop
      vertex -0.987568 9.08183 20
      vertex 0.987568 9.08183 2.52345
      vertex 0.954539 9.08183 2.50993
    endloop
  endfacet
  facet normal 6.12303e-017 1 0
    outer loop
      vertex -0.987568 9.08183 20
      vertex 0.954539 9.08183 2.50993
      vertex -0.954539 9.08183 2.50993
    endloop
  endfacet
  facet normal 6.12303e-017 1 0
    outer loop
      vertex -0.987568 9.08183 20
      vertex -0.954539 9.08183 2.50993
      vertex -0.987568 9.08183 2.52345
    endloop
  endfacet
  facet normal -0.324699 0.945817 0
    outer loop
      vertex 2.85568 9.72316 20
      vertex 2.85568 9.72316 4.52321
      vertex 0.987568 9.08183 20
    endloop
  endfacet
  facet normal -0.324699 0.945817 0
    outer loop
      vertex 0.987568 9.08183 20
      vertex 2.85568 9.72316 4.52321
      vertex 1.7225 9.33414 3.31018
    endloop
  endfacet
  facet normal -0.324699 0.945817 0
    outer loop
      vertex 0.987568 9.08183 20
      vertex 1.7225 9.33414 3.31018
      vertex 0.987568 9.08183 2.52345
    endloop
  endfacet
  facet normal -0.614213 0.78914 0
    outer loop
      vertex 4.41434 10.9363 20
      vertex 4.41434 10.9363 7.83455
      vertex 2.85568 9.72316 20
    endloop
  endfacet
  facet normal -0.614213 0.78914 0
    outer loop
      vertex 2.85568 9.72316 20
      vertex 4.41434 10.9363 7.83455
      vertex 3.262 10.0394 5.29857
    endloop
  endfacet
  facet normal -0.614213 0.78914 0
    outer loop
      vertex 2.85568 9.72316 20
      vertex 3.262 10.0394 5.29857
      vertex 2.85568 9.72316 4.52321
    endloop
  endfacet
  facet normal -0.837166 0.546949 0
    outer loop
      vertex 5.49464 12.5898 20
      vertex 5.49464 12.5898 11.6737
      vertex 4.41434 10.9363 20
    endloop
  endfacet
  facet normal -0.837166 0.546949 0
    outer loop
      vertex 4.41434 10.9363 20
      vertex 5.49464 12.5898 11.6737
      vertex 4.41434 10.9363 7.83455
    endloop
  endfacet
  facet normal -0.9694 0.245485 0
    outer loop
      vertex 5.78899 13.7522 20
      vertex 5.78899 13.7522 14
      vertex 5.49464 12.5898 20
    endloop
  endfacet
  facet normal -0.9694 0.245485 0
    outer loop
      vertex 5.49464 12.5898 20
      vertex 5.78899 13.7522 14
      vertex 5.49464 12.5898 11.6737
    endloop
  endfacet
  facet normal 0.406737 0.913545 0
    outer loop
      vertex 5.78899 13.7522 14
      vertex 5.78899 13.7522 20
      vertex 7.5 12.9904 14
    endloop
  endfacet
  facet normal 0.406737 0.913545 0
    outer loop
      vertex 7.5 12.9904 14
      vertex 5.78899 13.7522 20
      vertex 7.5 12.9904 20
    endloop
  endfacet
  facet normal 0.587785 0.809017 0
    outer loop
      vertex 7.5 12.9904 14
      vertex 7.5 12.9904 20
      vertex 10.037 11.1472 14
    endloop
  endfacet
  facet normal 0.587785 0.809017 0
    outer loop
      vertex 10.037 11.1472 14
      vertex 7.5 12.9904 20
      vertex 10.037 11.1472 20
    endloop
  endfacet
  facet normal 0.743145 0.669131 0
    outer loop
      vertex 12.1353 8.81678 14
      vertex 10.037 11.1472 14
      vertex 10.037 11.1472 20
    endloop
  endfacet
  facet normal 0.743145 0.669131 0
    outer loop
      vertex 12.1353 8.81678 20
      vertex 12.1353 8.81678 14
      vertex 10.037 11.1472 20
    endloop
  endfacet
  facet normal 0.866025 0.5 0
    outer loop
      vertex 13.7032 6.10105 14
      vertex 12.1353 8.81678 14
      vertex 12.1353 8.81678 20
    endloop
  endfacet
  facet normal 0.866025 0.5 0
    outer loop
      vertex 13.7032 6.10105 20
      vertex 13.7032 6.10105 14
      vertex 12.1353 8.81678 20
    endloop
  endfacet
  facet normal 0.951057 0.309017 0
    outer loop
      vertex 13.8006 5.80125 14
      vertex 13.7032 6.10105 14
      vertex 13.7032 6.10105 20
    endloop
  endfacet
  facet normal 0.951057 0.309017 0
    outer loop
      vertex 13.8006 5.80125 20
      vertex 13.8006 5.80125 14
      vertex 13.7032 6.10105 20
    endloop
  endfacet
  facet normal 0.245485 -0.9694 0
    outer loop
      vertex 13.8006 5.80125 14
      vertex 13.8006 5.80125 20
      vertex 12.5898 5.49464 20
    endloop
  endfacet
  facet normal 0.245485 -0.9694 0
    outer loop
      vertex 12.5898 5.49464 11.5463
      vertex 13.8006 5.80125 14
      vertex 12.5898 5.49464 20
    endloop
  endfacet
  facet normal 0.546949 -0.837166 0
    outer loop
      vertex 12.5898 5.49464 11.5463
      vertex 12.5898 5.49464 20
      vertex 10.9363 4.41434 20
    endloop
  endfacet
  facet normal 0.546949 -0.837166 0
    outer loop
      vertex 10.9363 4.41434 7.79293
      vertex 12.5898 5.49464 11.5463
      vertex 10.9363 4.41434 20
    endloop
  endfacet
  facet normal 0.78914 -0.614213 0
    outer loop
      vertex 9.9641 3.16525 5.21256
      vertex 10.9363 4.41434 7.79293
      vertex 10.9363 4.41434 20
    endloop
  endfacet
  facet normal 0.78914 -0.614213 0
    outer loop
      vertex 9.72316 2.85568 4.57305
      vertex 9.9641 3.16525 5.21256
      vertex 9.72316 2.85568 20
    endloop
  endfacet
  facet normal 0.78914 -0.614213 0
    outer loop
      vertex 9.72316 2.85568 20
      vertex 9.9641 3.16525 5.21256
      vertex 10.9363 4.41434 20
    endloop
  endfacet
  facet normal 0.945817 -0.324699 0
    outer loop
      vertex 9.18761 1.29569 2.88575
      vertex 9.43099 2.00462 3.50818
      vertex 9.72316 2.85568 4.57305
    endloop
  endfacet
  facet normal 0.945817 -0.324699 0
    outer loop
      vertex 9.08183 0.987568 20
      vertex 9.18761 1.29569 2.88575
      vertex 9.72316 2.85568 20
    endloop
  endfacet
  facet normal 0.945817 -0.324699 0
    outer loop
      vertex 9.72316 2.85568 20
      vertex 9.18761 1.29569 2.88575
      vertex 9.72316 2.85568 4.57305
    endloop
  endfacet
  facet normal 0.945817 -0.324699 0
    outer loop
      vertex 9.08183 0.987568 2.61522
      vertex 9.18761 1.29569 2.88575
      vertex 9.08183 0.987568 20
    endloop
  endfacet
  facet normal 1 0 0
    outer loop
      vertex 9.08183 0 2.41198
      vertex 9.08183 0.987568 2.61522
      vertex 9.08183 0.987568 20
    endloop
  endfacet
  facet normal 1 0 0
    outer loop
      vertex 9.08183 -2.22433e-015 2.41198
      vertex 9.08183 0 2.41198
      vertex 9.08183 -2.22433e-015 20
    endloop
  endfacet
  facet normal 1 0 0
    outer loop
      vertex 9.08183 -2.22433e-015 20
      vertex 9.08183 0 2.41198
      vertex 9.08183 0.987568 20
    endloop
  endfacet
  facet normal 1 -2.44921e-016 0
    outer loop
      vertex 9.08183 -0.563114 2.52787
      vertex 9.08183 -2.22433e-015 2.41198
      vertex 9.08183 -2.22433e-015 20
    endloop
  endfacet
  facet normal 1 -2.44921e-016 0
    outer loop
      vertex 9.08183 -0.987568 2.61522
      vertex 9.08183 -0.563114 2.52787
      vertex 9.08183 -0.987568 20
    endloop
  endfacet
  facet normal 1 -2.44921e-016 0
    outer loop
      vertex 9.08183 -0.987568 20
      vertex 9.08183 -0.563114 2.52787
      vertex 9.08183 -2.22433e-015 20
    endloop
  endfacet
  facet normal 0.945817 0.324699 0
    outer loop
      vertex 9.08183 -0.987568 20
      vertex 9.72316 -2.85568 20
      vertex 9.72316 -2.85568 4.57305
    endloop
  endfacet
  facet normal 0.945817 0.324699 0
    outer loop
      vertex 9.08183 -0.987568 2.61522
      vertex 9.08183 -0.987568 20
      vertex 9.43099 -2.00462 3.50818
    endloop
  endfacet
  facet normal 0.945817 0.324699 0
    outer loop
      vertex 9.43099 -2.00462 3.50818
      vertex 9.08183 -0.987568 20
      vertex 9.72316 -2.85568 4.57305
    endloop
  endfacet
  facet normal 0.78914 0.614213 0
    outer loop
      vertex 9.72316 -2.85568 20
      vertex 10.9363 -4.41434 20
      vertex 10.9363 -4.41434 7.79293
    endloop
  endfacet
  facet normal 0.78914 0.614213 0
    outer loop
      vertex 9.72316 -2.85568 4.57305
      vertex 9.72316 -2.85568 20
      vertex 10.2629 -3.54918 6.00568
    endloop
  endfacet
  facet normal 0.78914 0.614213 0
    outer loop
      vertex 10.2629 -3.54918 6.00568
      vertex 9.72316 -2.85568 20
      vertex 10.9363 -4.41434 7.79293
    endloop
  endfacet
  facet normal 0.546949 0.837166 0
    outer loop
      vertex 12.5898 -5.49464 20
      vertex 12.5898 -5.49464 11.5463
      vertex 10.9363 -4.41434 20
    endloop
  endfacet
  facet normal 0.546949 0.837166 0
    outer loop
      vertex 10.9363 -4.41434 20
      vertex 12.5898 -5.49464 11.5463
      vertex 10.9363 -4.41434 7.79293
    endloop
  endfacet
  facet normal 0.245485 0.9694 0
    outer loop
      vertex 13.8006 -5.80125 20
      vertex 13.8006 -5.80125 14
      vertex 12.5898 -5.49464 20
    endloop
  endfacet
  facet normal 0.245485 0.9694 0
    outer loop
      vertex 12.5898 -5.49464 20
      vertex 13.8006 -5.80125 14
      vertex 13.039 -5.60839 12.4566
    endloop
  endfacet
  facet normal 0.245485 0.9694 0
    outer loop
      vertex 12.5898 -5.49464 20
      vertex 13.039 -5.60839 12.4566
      vertex 12.5898 -5.49464 11.5463
    endloop
  endfacet
  facet normal 0.951057 -0.309017 0
    outer loop
      vertex 13.7032 -6.10105 20
      vertex 13.7032 -6.10105 14
      vertex 13.8006 -5.80125 14
    endloop
  endfacet
  facet normal 0.951057 -0.309017 0
    outer loop
      vertex 13.8006 -5.80125 20
      vertex 13.7032 -6.10105 20
      vertex 13.8006 -5.80125 14
    endloop
  endfacet
  facet normal 0.866025 -0.5 0
    outer loop
      vertex 12.1353 -8.81678 20
      vertex 12.1353 -8.81678 14
      vertex 13.7032 -6.10105 14
    endloop
  endfacet
  facet normal 0.866025 -0.5 0
    outer loop
      vertex 13.7032 -6.10105 20
      vertex 12.1353 -8.81678 20
      vertex 13.7032 -6.10105 14
    endloop
  endfacet
  facet normal 0.743145 -0.669131 0
    outer loop
      vertex 10.037 -11.1472 20
      vertex 10.037 -11.1472 14
      vertex 12.1353 -8.81678 14
    endloop
  endfacet
  facet normal 0.743145 -0.669131 0
    outer loop
      vertex 12.1353 -8.81678 20
      vertex 10.037 -11.1472 20
      vertex 12.1353 -8.81678 14
    endloop
  endfacet
  facet normal 0.587785 -0.809017 0
    outer loop
      vertex 7.5 -12.9904 20
      vertex 7.5 -12.9904 14
      vertex 10.037 -11.1472 14
    endloop
  endfacet
  facet normal 0.587785 -0.809017 0
    outer loop
      vertex 10.037 -11.1472 20
      vertex 7.5 -12.9904 20
      vertex 10.037 -11.1472 14
    endloop
  endfacet
  facet normal 0.406737 -0.913545 0
    outer loop
      vertex 5.78899 -13.7522 20
      vertex 5.78899 -13.7522 14
      vertex 7.5 -12.9904 14
    endloop
  endfacet
  facet normal 0.406737 -0.913545 0
    outer loop
      vertex 7.5 -12.9904 20
      vertex 5.78899 -13.7522 20
      vertex 7.5 -12.9904 14
    endloop
  endfacet
  facet normal -0.9694 -0.245485 0
    outer loop
      vertex 5.78899 -13.7522 20
      vertex 5.49464 -12.5898 20
      vertex 5.78899 -13.7522 14
    endloop
  endfacet
  facet normal -0.9694 -0.245485 0
    outer loop
      vertex 5.78899 -13.7522 14
      vertex 5.49464 -12.5898 20
      vertex 5.49464 -12.5898 11.6737
    endloop
  endfacet
  facet normal -0.837166 -0.546949 0
    outer loop
      vertex 5.49464 -12.5898 20
      vertex 4.41434 -10.9363 20
      vertex 5.49464 -12.5898 11.6737
    endloop
  endfacet
  facet normal -0.837166 -0.546949 0
    outer loop
      vertex 5.49464 -12.5898 11.6737
      vertex 4.41434 -10.9363 20
      vertex 4.41434 -10.9363 7.83455
    endloop
  endfacet
  facet normal -0.614213 -0.78914 0
    outer loop
      vertex 3.262 -10.0394 5.29857
      vertex 4.31092 -10.8558 7.60694
      vertex 4.41434 -10.9363 20
    endloop
  endfacet
  facet normal -0.614213 -0.78914 0
    outer loop
      vertex 4.41434 -10.9363 20
      vertex 4.31092 -10.8558 7.60694
      vertex 4.41434 -10.9363 7.83455
    endloop
  endfacet
  facet normal -0.614213 -0.78914 0
    outer loop
      vertex 3.262 -10.0394 5.29857
      vertex 4.41434 -10.9363 20
      vertex 2.85568 -9.72316 20
    endloop
  endfacet
  facet normal -0.614213 -0.78914 0
    outer loop
      vertex 3.262 -10.0394 5.29857
      vertex 2.85568 -9.72316 20
      vertex 2.85568 -9.72316 4.52321
    endloop
  endfacet
  facet normal -0.324699 -0.945817 0
    outer loop
      vertex 2.19214 -9.49536 3.81292
      vertex 2.85568 -9.72316 4.52321
      vertex 2.85568 -9.72316 20
    endloop
  endfacet
  facet normal -0.324699 -0.945817 0
    outer loop
      vertex 0.987568 -9.08183 2.52345
      vertex 2.19214 -9.49536 3.81292
      vertex 0.987568 -9.08183 20
    endloop
  endfacet
  facet normal -0.324699 -0.945817 0
    outer loop
      vertex 0.987568 -9.08183 20
      vertex 2.19214 -9.49536 3.81292
      vertex 2.85568 -9.72316 20
    endloop
  endfacet
  facet normal -1.83691e-016 -1 0
    outer loop
      vertex -0.954539 -9.08183 2.50993
      vertex 0.954539 -9.08183 2.50993
      vertex 0.987568 -9.08183 2.52345
    endloop
  endfacet
  facet normal -1.83691e-016 -1 0
    outer loop
      vertex -0.987568 -9.08183 20
      vertex -0.954539 -9.08183 2.50993
      vertex 0.987568 -9.08183 20
    endloop
  endfacet
  facet normal -1.83691e-016 -1 0
    outer loop
      vertex 0.987568 -9.08183 20
      vertex -0.954539 -9.08183 2.50993
      vertex 0.987568 -9.08183 2.52345
    endloop
  endfacet
  facet normal -1.83691e-016 -1 0
    outer loop
      vertex -0.987568 -9.08183 2.52345
      vertex -0.954539 -9.08183 2.50993
      vertex -0.987568 -9.08183 20
    endloop
  endfacet
  facet normal 0.324699 -0.945817 0
    outer loop
      vertex -1.7225 -9.33414 3.31018
      vertex -0.987568 -9.08183 2.52345
      vertex -0.987568 -9.08183 20
    endloop
  endfacet
  facet normal 0.324699 -0.945817 0
    outer loop
      vertex -2.85568 -9.72316 4.52321
      vertex -1.7225 -9.33414 3.31018
      vertex -2.85568 -9.72316 20
    endloop
  endfacet
  facet normal 0.324699 -0.945817 0
    outer loop
      vertex -2.85568 -9.72316 20
      vertex -1.7225 -9.33414 3.31018
      vertex -0.987568 -9.08183 20
    endloop
  endfacet
  facet normal 0.614213 -0.78914 0
    outer loop
      vertex -3.262 -10.0394 5.29857
      vertex -2.85568 -9.72316 4.52321
      vertex -2.85568 -9.72316 20
    endloop
  endfacet
  facet normal 0.614213 -0.78914 0
    outer loop
      vertex -4.41434 -10.9363 7.83455
      vertex -3.262 -10.0394 5.29857
      vertex -4.41434 -10.9363 20
    endloop
  endfacet
  facet normal 0.614213 -0.78914 0
    outer loop
      vertex -4.41434 -10.9363 20
      vertex -3.262 -10.0394 5.29857
      vertex -2.85568 -9.72316 20
    endloop
  endfacet
  facet normal 0.837166 -0.546949 0
    outer loop
      vertex -4.41434 -10.9363 7.83455
      vertex -4.41434 -10.9363 20
      vertex -5.49464 -12.5898 20
    endloop
  endfacet
  facet normal 0.837166 -0.546949 0
    outer loop
      vertex -5.49464 -12.5898 11.6737
      vertex -4.41434 -10.9363 7.83455
      vertex -5.49464 -12.5898 20
    endloop
  endfacet
  facet normal 0.9694 -0.245485 0
    outer loop
      vertex -5.49464 -12.5898 11.6737
      vertex -5.49464 -12.5898 20
      vertex -5.78899 -13.7522 20
    endloop
  endfacet
  facet normal 0.9694 -0.245485 0
    outer loop
      vertex -5.78899 -13.7522 14
      vertex -5.49464 -12.5898 11.6737
      vertex -5.78899 -13.7522 20
    endloop
  endfacet
  facet normal -0.406737 -0.913545 0
    outer loop
      vertex -7.5 -12.9904 20
      vertex -7.5 -12.9904 14
      vertex -5.78899 -13.7522 14
    endloop
  endfacet
  facet normal -0.406737 -0.913545 0
    outer loop
      vertex -5.78899 -13.7522 20
      vertex -7.5 -12.9904 20
      vertex -5.78899 -13.7522 14
    endloop
  endfacet
  facet normal -0.587785 -0.809017 0
    outer loop
      vertex -10.037 -11.1472 20
      vertex -10.037 -11.1472 14
      vertex -7.5 -12.9904 14
    endloop
  endfacet
  facet normal -0.587785 -0.809017 0
    outer loop
      vertex -7.5 -12.9904 20
      vertex -10.037 -11.1472 20
      vertex -7.5 -12.9904 14
    endloop
  endfacet
  facet normal -0.743145 -0.669131 0
    outer loop
      vertex -12.1353 -8.81678 14
      vertex -10.037 -11.1472 14
      vertex -12.1353 -8.81678 20
    endloop
  endfacet
  facet normal -0.743145 -0.669131 0
    outer loop
      vertex -12.1353 -8.81678 20
      vertex -10.037 -11.1472 14
      vertex -10.037 -11.1472 20
    endloop
  endfacet
  facet normal 0.866025 0.5 0
    outer loop
      vertex -5.9226 0 20
      vertex -2.9613 -5.12912 20
      vertex -2.9613 -5.12912 4
    endloop
  endfacet
  facet normal 0.866025 0.5 0
    outer loop
      vertex -5.9226 0 4
      vertex -5.9226 0 20
      vertex -2.9613 -5.12912 4
    endloop
  endfacet
  facet normal 0 1 0
    outer loop
      vertex 2.9613 -5.12912 20
      vertex 2.9613 -5.12912 4
      vertex -2.9613 -5.12912 20
    endloop
  endfacet
  facet normal 0 1 0
    outer loop
      vertex -2.9613 -5.12912 20
      vertex 2.9613 -5.12912 4
      vertex -2.9613 -5.12912 4
    endloop
  endfacet
  facet normal -0.866025 0.5 0
    outer loop
      vertex 5.9226 0 20
      vertex 5.9226 0 4
      vertex 2.9613 -5.12912 20
    endloop
  endfacet
  facet normal -0.866025 0.5 0
    outer loop
      vertex 2.9613 -5.12912 20
      vertex 5.9226 0 4
      vertex 2.9613 -5.12912 4
    endloop
  endfacet
  facet normal -0.866025 -0.5 0
    outer loop
      vertex 5.9226 0 20
      vertex 2.9613 5.12912 20
      vertex 5.9226 0 4
    endloop
  endfacet
  facet normal -0.866025 -0.5 0
    outer loop
      vertex 5.9226 0 4
      vertex 2.9613 5.12912 20
      vertex 2.9613 5.12912 4
    endloop
  endfacet
  facet normal 0 -1 0
    outer loop
      vertex 2.9613 5.12912 4
      vertex 2.9613 5.12912 20
      vertex -2.9613 5.12912 20
    endloop
  endfacet
  facet normal 0 -1 0
    outer loop
      vertex -2.9613 5.12912 4
      vertex 2.9613 5.12912 4
      vertex -2.9613 5.12912 20
    endloop
  endfacet
  facet normal 0.866025 -0.5 0
    outer loop
      vertex -2.9613 5.12912 4
      vertex -2.9613 5.12912 20
      vertex -5.9226 0 20
    endloop
  endfacet
  facet normal 0.866025 -0.5 0
    outer loop
      vertex -5.9226 0 4
      vertex -2.9613 5.12912 4
      vertex -5.9226 0 20
    endloop
  endfacet
  facet normal -0.662577 -0.596588 -0.452851
    outer loop
      vertex -10.037 -11.1472 14
      vertex -12.1353 -8.81678 14
      vertex -5.25267 -5.83369 0
    endloop
  endfacet
  facet normal -0.662578 -0.596587 -0.452851
    outer loop
      vertex -5.25267 -5.83369 0
      vertex -12.1353 -8.81678 14
      vertex -6.35078 -4.61411 0
    endloop
  endfacet
  facet normal -0.886702 -0.0931959 -0.452851
    outer loop
      vertex -9.18761 -1.29569 2.88575
      vertex -9.08183 -0.987568 2.61522
      vertex -7.67846 -1.63211 0
    endloop
  endfacet
  facet normal -0.886702 -0.0931959 -0.452851
    outer loop
      vertex -7.67846 -1.63211 0
      vertex -9.08183 -0.987568 2.61522
      vertex -9.08183 0 2.41198
    endloop
  endfacet
  facet normal -0.886702 -0.0931959 -0.452851
    outer loop
      vertex -7.67846 -1.63211 0
      vertex -9.08183 0 2.41198
      vertex -7.85 0 0
    endloop
  endfacet
  facet normal -0.886702 -0.0931961 -0.452851
    outer loop
      vertex -7.67846 -1.63211 0
      vertex -9.43099 -2.00462 3.50818
      vertex -9.18761 -1.29569 2.88575
    endloop
  endfacet
  facet normal -0.524061 -0.721308 -0.452851
    outer loop
      vertex -3.925 -6.7983 0
      vertex -10.037 -11.1472 14
      vertex -5.25267 -5.83369 0
    endloop
  endfacet
  facet normal -0.524061 -0.721308 -0.452851
    outer loop
      vertex -7.5 -12.9904 14
      vertex -10.037 -11.1472 14
      vertex -3.925 -6.7983 0
    endloop
  endfacet
  facet normal -0.362641 -0.814504 -0.452851
    outer loop
      vertex -2.42578 -7.46579 0
      vertex -7.5 -12.9904 14
      vertex -3.925 -6.7983 0
    endloop
  endfacet
  facet normal -0.362641 -0.814504 -0.452851
    outer loop
      vertex -4.41434 -10.9363 7.83455
      vertex -7.5 -12.9904 14
      vertex -2.42578 -7.46579 0
    endloop
  endfacet
  facet normal -0.362641 -0.814504 -0.452851
    outer loop
      vertex -5.49464 -12.5898 11.6737
      vertex -7.5 -12.9904 14
      vertex -4.41434 -10.9363 7.83455
    endloop
  endfacet
  facet normal -0.362641 -0.814504 -0.452851
    outer loop
      vertex -5.78899 -13.7522 14
      vertex -7.5 -12.9904 14
      vertex -5.49464 -12.5898 11.6737
    endloop
  endfacet
  facet normal -0.362641 -0.814504 -0.452851
    outer loop
      vertex -3.262 -10.0394 5.29857
      vertex -4.41434 -10.9363 7.83455
      vertex -2.42578 -7.46579 0
    endloop
  endfacet
  facet normal -0.185371 -0.872103 -0.452851
    outer loop
      vertex -2.85568 -9.72316 4.52321
      vertex -3.262 -10.0394 5.29857
      vertex -2.42578 -7.46579 0
    endloop
  endfacet
  facet normal -0.185371 -0.872103 -0.452851
    outer loop
      vertex -1.7225 -9.33414 3.31018
      vertex -2.85568 -9.72316 4.52321
      vertex -0.820548 -7.807 0
    endloop
  endfacet
  facet normal -0.185371 -0.872103 -0.452851
    outer loop
      vertex -0.820548 -7.807 0
      vertex -2.85568 -9.72316 4.52321
      vertex -2.42578 -7.46579 0
    endloop
  endfacet
  facet normal -0.185371 -0.872103 -0.452851
    outer loop
      vertex -0.987568 -9.08183 2.52345
      vertex -1.7225 -9.33414 3.31018
      vertex -0.820548 -7.807 0
    endloop
  endfacet
  facet normal -0.185371 -0.872103 -0.452851
    outer loop
      vertex -0.954539 -9.08183 2.50993
      vertex -0.987568 -9.08183 2.52345
      vertex -0.820548 -7.807 0
    endloop
  endfacet
  facet normal 0 -0.891586 -0.452851
    outer loop
      vertex 0.954539 -9.08183 2.50993
      vertex -0.954539 -9.08183 2.50993
      vertex -0.820548 -7.807 0
    endloop
  endfacet
  facet normal 0 -0.891586 -0.452851
    outer loop
      vertex 0.820548 -7.807 0
      vertex 0.954539 -9.08183 2.50993
      vertex -0.820548 -7.807 0
    endloop
  endfacet
  facet normal 0.185371 -0.872103 -0.452851
    outer loop
      vertex 0.954539 -9.08183 2.50993
      vertex 0.820548 -7.807 0
      vertex 2.42578 -7.46579 0
    endloop
  endfacet
  facet normal 0.185371 -0.872103 -0.452851
    outer loop
      vertex 0.987568 -9.08183 2.52345
      vertex 0.954539 -9.08183 2.50993
      vertex 2.42578 -7.46579 0
    endloop
  endfacet
  facet normal 0.185371 -0.872103 -0.452851
    outer loop
      vertex 2.19214 -9.49536 3.81292
      vertex 0.987568 -9.08183 2.52345
      vertex 2.42578 -7.46579 0
    endloop
  endfacet
  facet normal 0.185371 -0.872103 -0.452851
    outer loop
      vertex 2.85568 -9.72316 4.52321
      vertex 2.19214 -9.49536 3.81292
      vertex 2.42578 -7.46579 0
    endloop
  endfacet
  facet normal 0.185371 -0.872103 -0.452851
    outer loop
      vertex 3.262 -10.0394 5.29857
      vertex 2.85568 -9.72316 4.52321
      vertex 2.42578 -7.46579 0
    endloop
  endfacet
  facet normal 0.362641 -0.814504 -0.452851
    outer loop
      vertex 3.262 -10.0394 5.29857
      vertex 2.42578 -7.46579 0
      vertex 3.925 -6.7983 0
    endloop
  endfacet
  facet normal 0.362641 -0.814504 -0.452851
    outer loop
      vertex 4.31092 -10.8558 7.60694
      vertex 3.262 -10.0394 5.29857
      vertex 3.925 -6.7983 0
    endloop
  endfacet
  facet normal 0.362641 -0.814504 -0.452851
    outer loop
      vertex 4.31092 -10.8558 7.60694
      vertex 3.925 -6.7983 0
      vertex 7.5 -12.9904 14
    endloop
  endfacet
  facet normal 0.362641 -0.814504 -0.452851
    outer loop
      vertex 4.41434 -10.9363 7.83455
      vertex 4.31092 -10.8558 7.60694
      vertex 7.5 -12.9904 14
    endloop
  endfacet
  facet normal 0.362641 -0.814504 -0.452851
    outer loop
      vertex 5.78899 -13.7522 14
      vertex 5.49464 -12.5898 11.6737
      vertex 7.5 -12.9904 14
    endloop
  endfacet
  facet normal 0.362641 -0.814504 -0.452851
    outer loop
      vertex 5.49464 -12.5898 11.6737
      vertex 4.41434 -10.9363 7.83455
      vertex 7.5 -12.9904 14
    endloop
  endfacet
  facet normal 0.524061 -0.721308 -0.452851
    outer loop
      vertex 7.5 -12.9904 14
      vertex 3.925 -6.7983 0
      vertex 5.25267 -5.83369 0
    endloop
  endfacet
  facet normal 0.524061 -0.721308 -0.452851
    outer loop
      vertex 7.5 -12.9904 14
      vertex 5.25267 -5.83369 0
      vertex 10.037 -11.1472 14
    endloop
  endfacet
  facet normal 0.662578 -0.596587 -0.452851
    outer loop
      vertex 10.037 -11.1472 14
      vertex 5.25267 -5.83369 0
      vertex 6.35078 -4.61411 0
    endloop
  endfacet
  facet normal 0.662577 -0.596588 -0.452851
    outer loop
      vertex 10.037 -11.1472 14
      vertex 6.35078 -4.61411 0
      vertex 12.1353 -8.81678 14
    endloop
  endfacet
  facet normal 0.772136 -0.445793 -0.452851
    outer loop
      vertex 12.1353 -8.81678 14
      vertex 6.35078 -4.61411 0
      vertex 7.17133 -3.19288 0
    endloop
  endfacet
  facet normal 0.772136 -0.445793 -0.452851
    outer loop
      vertex 12.1353 -8.81678 14
      vertex 7.17133 -3.19288 0
      vertex 13.7032 -6.10105 14
    endloop
  endfacet
  facet normal 0.847949 -0.275515 -0.452851
    outer loop
      vertex 10.2629 -3.54918 6.00568
      vertex 7.17133 -3.19288 0
      vertex 7.67846 -1.63211 0
    endloop
  endfacet
  facet normal 0.847949 -0.275515 -0.452851
    outer loop
      vertex 10.9363 -4.41434 7.79293
      vertex 7.17133 -3.19288 0
      vertex 10.2629 -3.54918 6.00568
    endloop
  endfacet
  facet normal 0.847949 -0.275515 -0.452851
    outer loop
      vertex 12.5898 -5.49464 11.5463
      vertex 7.17133 -3.19288 0
      vertex 10.9363 -4.41434 7.79293
    endloop
  endfacet
  facet normal 0.847949 -0.275515 -0.452851
    outer loop
      vertex 13.7032 -6.10105 14
      vertex 7.17133 -3.19288 0
      vertex 12.5898 -5.49464 11.5463
    endloop
  endfacet
  facet normal 0.847949 -0.275515 -0.452851
    outer loop
      vertex 12.5898 -5.49464 11.5463
      vertex 13.039 -5.60839 12.4566
      vertex 13.7032 -6.10105 14
    endloop
  endfacet
  facet normal 0.847949 -0.275515 -0.452851
    outer loop
      vertex 9.72316 -2.85568 4.57305
      vertex 7.67846 -1.63211 0
      vertex 9.43099 -2.00462 3.50818
    endloop
  endfacet
  facet normal 0.847949 -0.275515 -0.452851
    outer loop
      vertex 10.2629 -3.54918 6.00568
      vertex 7.67846 -1.63211 0
      vertex 9.72316 -2.85568 4.57305
    endloop
  endfacet
  facet normal 0.886702 -0.0931959 -0.452851
    outer loop
      vertex 9.43099 -2.00462 3.50818
      vertex 7.67846 -1.63211 0
      vertex 7.85 0 0
    endloop
  endfacet
  facet normal 0.886702 -0.0931959 -0.452851
    outer loop
      vertex 9.08183 -0.987568 2.61522
      vertex 9.43099 -2.00462 3.50818
      vertex 7.85 0 0
    endloop
  endfacet
  facet normal 0.886702 -0.0931959 -0.452851
    outer loop
      vertex 9.08183 -0.563114 2.52787
      vertex 9.08183 -0.987568 2.61522
      vertex 7.85 0 0
    endloop
  endfacet
  facet normal 0.886702 -0.0931961 -0.452851
    outer loop
      vertex 9.08183 -0.563114 2.52787
      vertex 7.85 0 0
      vertex 9.08183 0 2.41198
    endloop
  endfacet
  facet normal 0.886702 -0.0931961 -0.452851
    outer loop
      vertex 9.08183 -2.22433e-015 2.41198
      vertex 9.08183 -0.563114 2.52787
      vertex 9.08183 0 2.41198
    endloop
  endfacet
  facet normal 0.886702 0.0931959 -0.452851
    outer loop
      vertex 7.85 0 0
      vertex 7.67846 1.63211 0
      vertex 9.18761 1.29569 2.88575
    endloop
  endfacet
  facet normal 0.886702 0.0931959 -0.452851
    outer loop
      vertex 9.08183 0 2.41198
      vertex 7.85 0 0
      vertex 9.08183 0.987568 2.61522
    endloop
  endfacet
  facet normal 0.886702 0.0931959 -0.452851
    outer loop
      vertex 9.08183 0.987568 2.61522
      vertex 7.85 0 0
      vertex 9.18761 1.29569 2.88575
    endloop
  endfacet
  facet normal 0.886702 0.0931961 -0.452851
    outer loop
      vertex 9.18761 1.29569 2.88575
      vertex 7.67846 1.63211 0
      vertex 9.43099 2.00462 3.50818
    endloop
  endfacet
  facet normal 0.847949 0.275515 -0.452851
    outer loop
      vertex 7.67846 1.63211 0
      vertex 7.17133 3.19288 0
      vertex 9.9641 3.16525 5.21256
    endloop
  endfacet
  facet normal 0.847949 0.275515 -0.452851
    outer loop
      vertex 9.43099 2.00462 3.50818
      vertex 7.67846 1.63211 0
      vertex 9.72316 2.85568 4.57305
    endloop
  endfacet
  facet normal 0.847949 0.275515 -0.452851
    outer loop
      vertex 9.72316 2.85568 4.57305
      vertex 7.67846 1.63211 0
      vertex 9.9641 3.16525 5.21256
    endloop
  endfacet
  facet normal 0.847949 0.275515 -0.452851
    outer loop
      vertex 12.5898 5.49464 11.5463
      vertex 7.17133 3.19288 0
      vertex 13.7032 6.10105 14
    endloop
  endfacet
  facet normal 0.847949 0.275515 -0.452851
    outer loop
      vertex 10.9363 4.41434 7.79293
      vertex 7.17133 3.19288 0
      vertex 12.5898 5.49464 11.5463
    endloop
  endfacet
  facet normal 0.847949 0.275515 -0.452851
    outer loop
      vertex 9.9641 3.16525 5.21256
      vertex 7.17133 3.19288 0
      vertex 10.9363 4.41434 7.79293
    endloop
  endfacet
  facet normal 0.847949 0.275515 -0.452851
    outer loop
      vertex 13.8006 5.80125 14
      vertex 12.5898 5.49464 11.5463
      vertex 13.7032 6.10105 14
    endloop
  endfacet
  facet normal 0.772136 0.445793 -0.452851
    outer loop
      vertex 7.17133 3.19288 0
      vertex 6.35078 4.61411 0
      vertex 13.7032 6.10105 14
    endloop
  endfacet
  facet normal 0.772136 0.445793 -0.452851
    outer loop
      vertex 13.7032 6.10105 14
      vertex 6.35078 4.61411 0
      vertex 12.1353 8.81678 14
    endloop
  endfacet
  facet normal 0.662578 0.596587 -0.452851
    outer loop
      vertex 6.35078 4.61411 0
      vertex 5.25267 5.83369 0
      vertex 12.1353 8.81678 14
    endloop
  endfacet
  facet normal 0.662577 0.596588 -0.452851
    outer loop
      vertex 12.1353 8.81678 14
      vertex 5.25267 5.83369 0
      vertex 10.037 11.1472 14
    endloop
  endfacet
  facet normal 0.524061 0.721308 -0.452851
    outer loop
      vertex 5.25267 5.83369 0
      vertex 3.925 6.7983 0
      vertex 10.037 11.1472 14
    endloop
  endfacet
  facet normal 0.524061 0.721308 -0.452851
    outer loop
      vertex 10.037 11.1472 14
      vertex 3.925 6.7983 0
      vertex 7.5 12.9904 14
    endloop
  endfacet
  facet normal 0.362641 0.814504 -0.452851
    outer loop
      vertex 3.925 6.7983 0
      vertex 2.42578 7.46579 0
      vertex 7.5 12.9904 14
    endloop
  endfacet
  facet normal 0.362641 0.814504 -0.452851
    outer loop
      vertex 2.42578 7.46579 0
      vertex 3.262 10.0394 5.29857
      vertex 7.5 12.9904 14
    endloop
  endfacet
  facet normal 0.362641 0.814504 -0.452851
    outer loop
      vertex 7.5 12.9904 14
      vertex 3.262 10.0394 5.29857
      vertex 4.41434 10.9363 7.83455
    endloop
  endfacet
  facet normal 0.362641 0.814504 -0.452851
    outer loop
      vertex 7.5 12.9904 14
      vertex 4.41434 10.9363 7.83455
      vertex 5.49464 12.5898 11.6737
    endloop
  endfacet
  facet normal 0.362641 0.814504 -0.452851
    outer loop
      vertex 5.49464 12.5898 11.6737
      vertex 5.78899 13.7522 14
      vertex 7.5 12.9904 14
    endloop
  endfacet
  facet normal 0.185371 0.872103 -0.452851
    outer loop
      vertex 0.820548 7.807 0
      vertex 1.7225 9.33414 3.31018
      vertex 2.42578 7.46579 0
    endloop
  endfacet
  facet normal 0.185371 0.872103 -0.452851
    outer loop
      vertex 2.42578 7.46579 0
      vertex 1.7225 9.33414 3.31018
      vertex 2.85568 9.72316 4.52321
    endloop
  endfacet
  facet normal 0.185371 0.872103 -0.452851
    outer loop
      vertex 2.42578 7.46579 0
      vertex 2.85568 9.72316 4.52321
      vertex 3.262 10.0394 5.29857
    endloop
  endfacet
  facet normal 0.185371 0.872103 -0.452851
    outer loop
      vertex 0.820548 7.807 0
      vertex 0.987568 9.08183 2.52345
      vertex 1.7225 9.33414 3.31018
    endloop
  endfacet
  facet normal 0.185371 0.872103 -0.452851
    outer loop
      vertex 0.820548 7.807 0
      vertex 0.954539 9.08183 2.50993
      vertex 0.987568 9.08183 2.52345
    endloop
  endfacet
  facet normal 0 0.891586 -0.452851
    outer loop
      vertex -0.954539 9.08183 2.50993
      vertex 0.954539 9.08183 2.50993
      vertex -0.820548 7.807 0
    endloop
  endfacet
  facet normal 0 0.891586 -0.452851
    outer loop
      vertex -0.820548 7.807 0
      vertex 0.954539 9.08183 2.50993
      vertex 0.820548 7.807 0
    endloop
  endfacet
  facet normal -0.185371 0.872103 -0.452851
    outer loop
      vertex -2.42578 7.46579 0
      vertex -2.19214 9.49536 3.81292
      vertex -0.820548 7.807 0
    endloop
  endfacet
  facet normal -0.185371 0.872103 -0.452851
    outer loop
      vertex -0.820548 7.807 0
      vertex -2.19214 9.49536 3.81292
      vertex -0.987568 9.08183 2.52345
    endloop
  endfacet
  facet normal -0.185371 0.872103 -0.452851
    outer loop
      vertex -0.820548 7.807 0
      vertex -0.987568 9.08183 2.52345
      vertex -0.954539 9.08183 2.50993
    endloop
  endfacet
  facet normal -0.185371 0.872103 -0.452851
    outer loop
      vertex -3.262 10.0394 5.29857
      vertex -2.85568 9.72316 4.52321
      vertex -2.42578 7.46579 0
    endloop
  endfacet
  facet normal -0.185371 0.872103 -0.452851
    outer loop
      vertex -2.42578 7.46579 0
      vertex -2.85568 9.72316 4.52321
      vertex -2.19214 9.49536 3.81292
    endloop
  endfacet
  facet normal -0.362641 0.814504 -0.452851
    outer loop
      vertex -4.31092 10.8558 7.60694
      vertex -3.262 10.0394 5.29857
      vertex -3.925 6.7983 0
    endloop
  endfacet
  facet normal -0.362641 0.814504 -0.452851
    outer loop
      vertex -3.925 6.7983 0
      vertex -3.262 10.0394 5.29857
      vertex -2.42578 7.46579 0
    endloop
  endfacet
  facet normal -0.362641 0.814504 -0.452851
    outer loop
      vertex -7.5 12.9904 14
      vertex -5.49464 12.5898 11.6737
      vertex -3.925 6.7983 0
    endloop
  endfacet
  facet normal -0.362641 0.814504 -0.452851
    outer loop
      vertex -7.5 12.9904 14
      vertex -5.78899 13.7522 14
      vertex -5.49464 12.5898 11.6737
    endloop
  endfacet
  facet normal -0.362641 0.814504 -0.452851
    outer loop
      vertex -3.925 6.7983 0
      vertex -4.41434 10.9363 7.83455
      vertex -4.31092 10.8558 7.60694
    endloop
  endfacet
  facet normal -0.362641 0.814504 -0.452851
    outer loop
      vertex -4.41434 10.9363 7.83455
      vertex -3.925 6.7983 0
      vertex -5.49464 12.5898 11.6737
    endloop
  endfacet
  facet normal -0.524061 0.721308 -0.452851
    outer loop
      vertex -5.25267 5.83369 0
      vertex -7.5 12.9904 14
      vertex -3.925 6.7983 0
    endloop
  endfacet
  facet normal -0.524061 0.721308 -0.452851
    outer loop
      vertex -5.25267 5.83369 0
      vertex -10.037 11.1472 14
      vertex -7.5 12.9904 14
    endloop
  endfacet
  facet normal -0.662578 0.596587 -0.452851
    outer loop
      vertex -6.35078 4.61411 0
      vertex -10.037 11.1472 14
      vertex -5.25267 5.83369 0
    endloop
  endfacet
  facet normal -0.662577 0.596588 -0.452851
    outer loop
      vertex -6.35078 4.61411 0
      vertex -12.1353 8.81678 14
      vertex -10.037 11.1472 14
    endloop
  endfacet
  facet normal -0.772136 0.445793 -0.452851
    outer loop
      vertex -7.17133 3.19288 0
      vertex -12.1353 8.81678 14
      vertex -6.35078 4.61411 0
    endloop
  endfacet
  facet normal -0.772136 0.445793 -0.452851
    outer loop
      vertex -7.17133 3.19288 0
      vertex -13.7032 6.10105 14
      vertex -12.1353 8.81678 14
    endloop
  endfacet
  facet normal -0.847949 0.275515 -0.452851
    outer loop
      vertex -10.2629 3.54918 6.00568
      vertex -7.17133 3.19288 0
      vertex -7.67846 1.63211 0
    endloop
  endfacet
  facet normal -0.847949 0.275515 -0.452851
    outer loop
      vertex -10.9363 4.41434 7.79293
      vertex -7.17133 3.19288 0
      vertex -10.2629 3.54918 6.00568
    endloop
  endfacet
  facet normal -0.847949 0.275515 -0.452851
    outer loop
      vertex -13.7032 6.10105 14
      vertex -7.17133 3.19288 0
      vertex -12.5898 5.49464 11.5463
    endloop
  endfacet
  facet normal -0.847949 0.275515 -0.452851
    outer loop
      vertex -13.7032 6.10105 14
      vertex -12.5898 5.49464 11.5463
      vertex -13.039 5.60839 12.4566
    endloop
  endfacet
  facet normal -0.847949 0.275515 -0.452851
    outer loop
      vertex -12.5898 5.49464 11.5463
      vertex -7.17133 3.19288 0
      vertex -10.9363 4.41434 7.79293
    endloop
  endfacet
  facet normal -0.847949 0.275515 -0.452851
    outer loop
      vertex -10.2629 3.54918 6.00568
      vertex -7.67846 1.63211 0
      vertex -9.72316 2.85568 4.57305
    endloop
  endfacet
  facet normal -0.847949 0.275515 -0.452851
    outer loop
      vertex -9.72316 2.85568 4.57305
      vertex -7.67846 1.63211 0
      vertex -9.43099 2.00462 3.50818
    endloop
  endfacet
  facet normal -0.886702 0.0931959 -0.452851
    outer loop
      vertex -9.43099 2.00462 3.50818
      vertex -7.67846 1.63211 0
      vertex -9.08183 0.987568 2.61522
    endloop
  endfacet
  facet normal -0.886702 0.0931959 -0.452851
    outer loop
      vertex -9.08183 0.987568 2.61522
      vertex -7.67846 1.63211 0
      vertex -7.85 0 0
    endloop
  endfacet
  facet normal -0.886702 0.0931959 -0.452851
    outer loop
      vertex -9.08183 0.987568 2.61522
      vertex -7.85 0 0
      vertex -9.08183 0.563114 2.52787
    endloop
  endfacet
  facet normal -0.886702 0.0931961 -0.452851
    outer loop
      vertex -7.85 0 0
      vertex -9.08183 0 2.41198
      vertex -9.08183 0.563114 2.52787
    endloop
  endfacet
  facet normal 0.987688 0.156434 0
    outer loop
      vertex -3.13645 0 4
      vertex -2.98295 -0.969218 4
      vertex -2.98295 -0.969218 0
    endloop
  endfacet
  facet normal 0.987688 0.156434 0
    outer loop
      vertex -3.13645 0 0
      vertex -3.13645 0 4
      vertex -2.98295 -0.969218 0
    endloop
  endfacet
  facet normal 0.987688 -0.156434 0
    outer loop
      vertex -2.98295 0.969218 0
      vertex -2.98295 0.969218 4
      vertex -3.13645 0 4
    endloop
  endfacet
  facet normal 0.987688 -0.156434 0
    outer loop
      vertex -3.13645 0 0
      vertex -2.98295 0.969218 0
      vertex -3.13645 0 4
    endloop
  endfacet
  facet normal 0.891006 -0.453991 0
    outer loop
      vertex -2.53745 1.84356 0
      vertex -2.53745 1.84356 4
      vertex -2.98295 0.969218 4
    endloop
  endfacet
  facet normal 0.891006 -0.453991 0
    outer loop
      vertex -2.98295 0.969218 0
      vertex -2.53745 1.84356 0
      vertex -2.98295 0.969218 4
    endloop
  endfacet
  facet normal 0.707107 -0.707107 0
    outer loop
      vertex -1.84356 2.53745 0
      vertex -1.84356 2.53745 4
      vertex -2.53745 1.84356 4
    endloop
  endfacet
  facet normal 0.707107 -0.707107 0
    outer loop
      vertex -2.53745 1.84356 0
      vertex -1.84356 2.53745 0
      vertex -2.53745 1.84356 4
    endloop
  endfacet
  facet normal 0.453991 -0.891006 0
    outer loop
      vertex -0.969218 2.98295 0
      vertex -0.969218 2.98295 4
      vertex -1.84356 2.53745 4
    endloop
  endfacet
  facet normal 0.453991 -0.891006 0
    outer loop
      vertex -1.84356 2.53745 0
      vertex -0.969218 2.98295 0
      vertex -1.84356 2.53745 4
    endloop
  endfacet
  facet normal 0.156434 -0.987688 0
    outer loop
      vertex 0 3.13645 0
      vertex 0 3.13645 4
      vertex -0.969218 2.98295 4
    endloop
  endfacet
  facet normal 0.156434 -0.987688 0
    outer loop
      vertex -0.969218 2.98295 0
      vertex 0 3.13645 0
      vertex -0.969218 2.98295 4
    endloop
  endfacet
  facet normal -0.156434 -0.987688 0
    outer loop
      vertex 0.969218 2.98295 0
      vertex 0.969218 2.98295 4
      vertex 0 3.13645 4
    endloop
  endfacet
  facet normal -0.156434 -0.987688 0
    outer loop
      vertex 0 3.13645 0
      vertex 0.969218 2.98295 0
      vertex 0 3.13645 4
    endloop
  endfacet
  facet normal -0.453991 -0.891006 0
    outer loop
      vertex 1.84356 2.53745 0
      vertex 1.84356 2.53745 4
      vertex 0.969218 2.98295 4
    endloop
  endfacet
  facet normal -0.453991 -0.891006 0
    outer loop
      vertex 0.969218 2.98295 0
      vertex 1.84356 2.53745 0
      vertex 0.969218 2.98295 4
    endloop
  endfacet
  facet normal -0.707107 -0.707107 0
    outer loop
      vertex 2.53745 1.84356 0
      vertex 2.53745 1.84356 4
      vertex 1.84356 2.53745 4
    endloop
  endfacet
  facet normal -0.707107 -0.707107 0
    outer loop
      vertex 1.84356 2.53745 0
      vertex 2.53745 1.84356 0
      vertex 1.84356 2.53745 4
    endloop
  endfacet
  facet normal -0.891006 -0.453991 0
    outer loop
      vertex 2.98295 0.969218 4
      vertex 2.53745 1.84356 4
      vertex 2.98295 0.969218 0
    endloop
  endfacet
  facet normal -0.891006 -0.453991 0
    outer loop
      vertex 2.98295 0.969218 0
      vertex 2.53745 1.84356 4
      vertex 2.53745 1.84356 0
    endloop
  endfacet
  facet normal -0.987688 -0.156434 0
    outer loop
      vertex 3.13645 0 4
      vertex 2.98295 0.969218 4
      vertex 3.13645 0 0
    endloop
  endfacet
  facet normal -0.987688 -0.156434 0
    outer loop
      vertex 3.13645 0 0
      vertex 2.98295 0.969218 4
      vertex 2.98295 0.969218 0
    endloop
  endfacet
  facet normal -0.987688 0.156434 0
    outer loop
      vertex 3.13645 0 4
      vertex 3.13645 0 0
      vertex 2.98295 -0.969218 4
    endloop
  endfacet
  facet normal -0.987688 0.156434 0
    outer loop
      vertex 2.98295 -0.969218 4
      vertex 3.13645 0 0
      vertex 2.98295 -0.969218 0
    endloop
  endfacet
  facet normal -0.891006 0.453991 0
    outer loop
      vertex 2.98295 -0.969218 4
      vertex 2.98295 -0.969218 0
      vertex 2.53745 -1.84356 4
    endloop
  endfacet
  facet normal -0.891006 0.453991 0
    outer loop
      vertex 2.53745 -1.84356 4
      vertex 2.98295 -0.969218 0
      vertex 2.53745 -1.84356 0
    endloop
  endfacet
  facet normal -0.707107 0.707107 0
    outer loop
      vertex 2.53745 -1.84356 4
      vertex 2.53745 -1.84356 0
      vertex 1.84356 -2.53745 4
    endloop
  endfacet
  facet normal -0.707107 0.707107 0
    outer loop
      vertex 1.84356 -2.53745 4
      vertex 2.53745 -1.84356 0
      vertex 1.84356 -2.53745 0
    endloop
  endfacet
  facet normal -0.453991 0.891006 0
    outer loop
      vertex 1.84356 -2.53745 4
      vertex 1.84356 -2.53745 0
      vertex 0.969218 -2.98295 4
    endloop
  endfacet
  facet normal -0.453991 0.891006 0
    outer loop
      vertex 0.969218 -2.98295 4
      vertex 1.84356 -2.53745 0
      vertex 0.969218 -2.98295 0
    endloop
  endfacet
  facet normal -0.156434 0.987688 0
    outer loop
      vertex 0.969218 -2.98295 4
      vertex 0.969218 -2.98295 0
      vertex 0 -3.13645 4
    endloop
  endfacet
  facet normal -0.156434 0.987688 0
    outer loop
      vertex 0 -3.13645 4
      vertex 0.969218 -2.98295 0
      vertex 0 -3.13645 0
    endloop
  endfacet
  facet normal 0.156434 0.987688 0
    outer loop
      vertex 0 -3.13645 4
      vertex 0 -3.13645 0
      vertex -0.969218 -2.98295 4
    endloop
  endfacet
  facet normal 0.156434 0.987688 0
    outer loop
      vertex -0.969218 -2.98295 4
      vertex 0 -3.13645 0
      vertex -0.969218 -2.98295 0
    endloop
  endfacet
  facet normal 0.453991 0.891006 0
    outer loop
      vertex -0.969218 -2.98295 4
      vertex -0.969218 -2.98295 0
      vertex -1.84356 -2.53745 4
    endloop
  endfacet
  facet normal 0.453991 0.891006 0
    outer loop
      vertex -1.84356 -2.53745 4
      vertex -0.969218 -2.98295 0
      vertex -1.84356 -2.53745 0
    endloop
  endfacet
  facet normal 0.707107 0.707107 0
    outer loop
      vertex -1.84356 -2.53745 4
      vertex -1.84356 -2.53745 0
      vertex -2.53745 -1.84356 4
    endloop
  endfacet
  facet normal 0.707107 0.707107 0
    outer loop
      vertex -2.53745 -1.84356 4
      vertex -1.84356 -2.53745 0
      vertex -2.53745 -1.84356 0
    endloop
  endfacet
  facet normal 0.891006 0.453991 0
    outer loop
      vertex -2.98295 -0.969218 4
      vertex -2.53745 -1.84356 4
      vertex -2.53745 -1.84356 0
    endloop
  endfacet
  facet normal 0.891006 0.453991 0
    outer loop
      vertex -2.98295 -0.969218 0
      vertex -2.98295 -0.969218 4
      vertex -2.53745 -1.84356 0
    endloop
  endfacet
  facet normal -0.847949 0.275515 -0.452851
    outer loop
      vertex -13.039 5.60839 12.4566
      vertex -13.8006 5.80125 14
      vertex -13.7032 6.10105 14
    endloop
  endfacet
  facet normal 0.847949 -0.275515 -0.452851
    outer loop
      vertex 13.7032 -6.10105 14
      vertex 13.039 -5.60839 12.4566
      vertex 13.8006 -5.80125 14
    endloop
  endfacet
  facet normal 0 0 1
    outer loop
      vertex 1.84356 -2.53745 4
      vertex 2.9613 -5.12912 4
      vertex 5.9226 0 4
    endloop
  endfacet
  facet normal 0 0 1
    outer loop
      vertex -0.969218 2.98295 4
      vertex 0 3.13645 4
      vertex 2.9613 5.12912 4
    endloop
  endfacet
  facet normal 0 0 1
    outer loop
      vertex -5.9226 0 4
      vertex -3.13645 0 4
      vertex -2.9613 5.12912 4
    endloop
  endfacet
  facet normal 0 0 1
    outer loop
      vertex -5.9226 0 4
      vertex -2.9613 -5.12912 4
      vertex -3.13645 0 4
    endloop
  endfacet
  facet normal 0 0 1
    outer loop
      vertex -3.13645 0 4
      vertex -2.98295 0.969218 4
      vertex -2.9613 5.12912 4
    endloop
  endfacet
  facet normal 0 0 1
    outer loop
      vertex 0.969218 2.98295 4
      vertex 1.84356 2.53745 4
      vertex 2.9613 5.12912 4
    endloop
  endfacet
  facet normal 0 0 1
    outer loop
      vertex -2.9613 5.12912 4
      vertex -1.84356 2.53745 4
      vertex 2.9613 5.12912 4
    endloop
  endfacet
  facet normal 0 0 1
    outer loop
      vertex -2.9613 5.12912 4
      vertex -2.53745 1.84356 4
      vertex -1.84356 2.53745 4
    endloop
  endfacet
  facet normal 0 0 1
    outer loop
      vertex -1.84356 2.53745 4
      vertex -0.969218 2.98295 4
      vertex 2.9613 5.12912 4
    endloop
  endfacet
  facet normal 0 0 1
    outer loop
      vertex -1.84356 -2.53745 4
      vertex -2.53745 -1.84356 4
      vertex -2.9613 -5.12912 4
    endloop
  endfacet
  facet normal 0 0 1
    outer loop
      vertex 0 3.13645 4
      vertex 0.969218 2.98295 4
      vertex 2.9613 5.12912 4
    endloop
  endfacet
  facet normal 0 0 1
    outer loop
      vertex 2.9613 5.12912 4
      vertex 1.84356 2.53745 4
      vertex 5.9226 0 4
    endloop
  endfacet
  facet normal 0 0 1
    outer loop
      vertex 1.84356 2.53745 4
      vertex 2.53745 1.84356 4
      vertex 5.9226 0 4
    endloop
  endfacet
  facet normal 0 0 1
    outer loop
      vertex -2.53745 -1.84356 4
      vertex -2.98295 -0.969218 4
      vertex -2.9613 -5.12912 4
    endloop
  endfacet
  facet normal 0 0 1
    outer loop
      vertex 2.53745 1.84356 4
      vertex 2.98295 0.969218 4
      vertex 5.9226 0 4
    endloop
  endfacet
  facet normal 0 0 1
    outer loop
      vertex 2.98295 0.969218 4
      vertex 3.13645 0 4
      vertex 5.9226 0 4
    endloop
  endfacet
  facet normal 0 0 1
    outer loop
      vertex 3.13645 0 4
      vertex 2.98295 -0.969218 4
      vertex 5.9226 0 4
    endloop
  endfacet
  facet normal 0 0 1
    outer loop
      vertex 2.98295 -0.969218 4
      vertex 2.53745 -1.84356 4
      vertex 5.9226 0 4
    endloop
  endfacet
  facet normal 0 0 1
    outer loop
      vertex -2.9613 -5.12912 4
      vertex 2.9613 -5.12912 4
      vertex 1.84356 -2.53745 4
    endloop
  endfacet
  facet normal 0 0 1
    outer loop
      vertex 0.969218 -2.98295 4
      vertex 0 -3.13645 4
      vertex -2.9613 -5.12912 4
    endloop
  endfacet
  facet normal 0 0 1
    outer loop
      vertex -2.9613 -5.12912 4
      vertex 1.84356 -2.53745 4
      vertex 0.969218 -2.98295 4
    endloop
  endfacet
  facet normal 0 0 1
    outer loop
      vertex -0.969218 -2.98295 4
      vertex -1.84356 -2.53745 4
      vertex -2.9613 -5.12912 4
    endloop
  endfacet
  facet normal 0 0 1
    outer loop
      vertex -3.13645 0 4
      vertex -2.9613 -5.12912 4
      vertex -2.98295 -0.969218 4
    endloop
  endfacet
  facet normal 0 0 1
    outer loop
      vertex -2.98295 0.969218 4
      vertex -2.53745 1.84356 4
      vertex -2.9613 5.12912 4
    endloop
  endfacet
  facet normal 0 0 1
    outer loop
      vertex 2.53745 -1.84356 4
      vertex 1.84356 -2.53745 4
      vertex 5.9226 0 4
    endloop
  endfacet
  facet normal 0 0 1
    outer loop
      vertex 0 -3.13645 4
      vertex -0.969218 -2.98295 4
      vertex -2.9613 -5.12912 4
    endloop
  endfacet
endsolid OpenSCAD_Model
